<svg xmlns="http://www.w3.org/2000/svg" version="1.1" xmlns:xlink="http://www.w3.org/1999/xlink" xmlns:svgjs="http://svgjs.dev/svgjs" width="1500" height="935" viewBox="0 0 1500 935"><g transform="matrix(1,0,0,1,-0.9090909090909918,0.3785425101214628)"><svg viewBox="0 0 396 247" data-background-color="#30F2DF" preserveAspectRatio="xMidYMid meet" height="935" width="1500" xmlns="http://www.w3.org/2000/svg" xmlns:xlink="http://www.w3.org/1999/xlink"><g id="tight-bounds" transform="matrix(1,0,0,1,0.2400000000000091,-0.09999999999999432)"><svg viewBox="0 0 395.52 247.2" height="247.2" width="395.52"><g><svg></svg></g><g><svg viewBox="0 0 395.52 247.2" height="247.2" width="395.52"><g transform="matrix(1,0,0,1,75.54432,101.22000075675126)"><svg viewBox="0 0 244.43135999999998 44.75999848649748" height="44.75999848649748" width="244.43135999999998"><g><svg viewBox="0 0 244.43135999999998 44.75999848649748" height="44.75999848649748" width="244.43135999999998"><g><svg viewBox="0 0 244.43135999999998 44.75999848649748" height="44.75999848649748" width="244.43135999999998"><g><svg viewBox="0 0 244.43135999999998 44.75999848649748" height="44.75999848649748" width="244.43135999999998"><g id="textblocktransform"><svg viewBox="0 0 244.43135999999998 44.75999848649748" height="44.75999848649748" width="244.43135999999998" id="textblock"><g><svg viewBox="0 0 244.43135999999998 44.75999848649748" height="44.75999848649748" width="244.43135999999998"><g transform="matrix(1,0,0,1,0,0)"><svg width="244.43135999999998" viewBox="0.509090909090909 -37.8 268.1118181796541 49.099999999999994" height="44.75999848649748" data-palette-color="#30F2DF"><path d="M25.15-24.95L25.15-2.4Q26-1.9 26.9-1.75 27.8-1.6 28.65-1.4L28.65-1.4Q28.8-0.5 28.4 0.35L28.4 0.35Q27.6 0.5 26.53 0.6 25.45 0.7 24.3 0.7L24.3 0.7Q22.7 0.7 21.5 0.4L21.5 0.4 20.65-3.3 20.4-3.3Q17.85-1 15.68-0.1 13.5 0.8 10.95 0.8L10.95 0.8Q7.35 0.8 5.78-1.2 4.2-3.2 4.2-6.7L4.2-6.7 4.2-22 0.55-22.4Q0.4-23.4 0.8-24.15L0.8-24.15Q2.6-24.4 4.17-24.75 5.75-25.1 7.3-25.5L7.3-25.5Q7.8-25.45 8.25-25.33 8.7-25.2 9.2-24.95L9.2-24.95 9.2-7.45Q9.2-5.35 9.83-4.35 10.45-3.35 11.5-3.03 12.55-2.7 13.9-2.7L13.9-2.7Q15.5-2.7 17.25-3.65 19-4.6 20.15-5.9L20.15-5.9 20.15-22 16.5-22.4Q16.35-23.4 16.75-24.15L16.75-24.15Q18.55-24.4 20.13-24.75 21.7-25.1 23.25-25.5L23.25-25.5Q23.75-25.45 24.2-25.33 24.65-25.2 25.15-24.95L25.15-24.95ZM34.45-7.5L34.95-2.2Q36-1.7 37.07-1.5 38.15-1.3 39.5-1.3L39.5-1.3Q41.55-1.3 43.15-2.2 44.75-3.1 44.75-5.1L44.75-5.1Q44.75-6.15 44.17-7.05 43.6-7.95 42.17-8.9 40.75-9.85 38.1-11.05L38.1-11.05Q35.2-12.4 33.6-14.18 32-15.95 32-19.1L32-19.1Q32-21.65 33.27-23.13 34.55-24.6 36.57-25.25 38.6-25.9 40.85-25.9L40.85-25.9Q42.8-25.9 44.72-25.53 46.65-25.15 48.15-24.5L48.15-24.5Q48.15-24.25 48.17-23.95 48.2-23.65 48.2-23.4L48.2-23.4Q48.2-20.35 47.25-17.65L47.25-17.65Q47.05-17.6 46.87-17.57 46.7-17.55 46.5-17.55L46.5-17.55Q45.75-17.55 45-17.85L45-17.85 44.2-23.25Q43.55-23.45 42.7-23.58 41.85-23.7 41-23.7L41-23.7Q39.85-23.7 38.72-23.38 37.6-23.05 36.87-22.28 36.15-21.5 36.15-20.1L36.15-20.1Q36.15-19.15 36.57-18.3 37-17.45 38.27-16.53 39.55-15.6 42.1-14.35L42.1-14.35Q46.1-12.45 47.72-10.68 49.35-8.9 49.35-6.25L49.35-6.25Q49.35-3.7 48-2.1 46.65-0.5 44.47 0.25 42.3 1 39.85 1L39.85 1Q37.5 1 35.47 0.63 33.45 0.25 31.4-1L31.4-1 31.4-1.85Q31.4-3.2 31.57-4.63 31.75-6.05 32.3-7.7L32.3-7.7Q32.6-7.75 32.8-7.75L32.8-7.75Q33.7-7.75 34.45-7.5L34.45-7.5ZM58.24-13.5L58.24-12.5Q58.24-7.45 60.27-4.67 62.3-1.9 65.8-1.9L65.8-1.9Q67.34-1.9 68.39-2.08 69.44-2.25 70.47-2.75 71.5-3.25 72.8-4.15L72.8-4.15Q73.59-3.8 73.69-2.95L73.69-2.95Q72.14-1.15 70-0.15 67.84 0.85 65.64 0.85L65.64 0.85Q61.84 0.85 58.99-0.75 56.14-2.35 54.55-5.35 52.95-8.35 52.95-12.5L52.95-12.5Q52.95-16.75 54.62-19.73 56.3-22.7 59.12-24.28 61.95-25.85 65.39-25.85L65.39-25.85Q69.84-25.85 71.97-22.88 74.09-19.9 74.09-15.2L74.09-15.2Q74.09-14.85 74.09-14.55 74.09-14.25 74.05-13.9L74.05-13.9 73.34-13.35 58.24-13.5ZM65.34-23.7L65.34-23.7Q63.89-23.7 62.47-22.8 61.05-21.9 59.95-20.1 58.84-18.3 58.45-15.55L58.45-15.55 69.34-16.15Q69.34-20 68.52-21.85 67.69-23.7 65.34-23.7ZM85.84-16.85L85.84-2.5 90.69-1.5Q90.84-0.55 90.44 0.25L90.44 0.25Q89.54 0.2 88.22 0.15 86.89 0.1 85.59 0.05 84.29 0 83.34 0L83.34 0Q81.94 0 80.29 0.08 78.64 0.15 77.24 0.25L77.24 0.25Q77.09-0.7 77.34-1.5L77.34-1.5Q78.29-1.75 79.22-1.95 80.14-2.15 80.84-2.5L80.84-2.5 80.84-22 76.69-22.4Q76.54-23.4 76.94-24.15L76.94-24.15Q78.74-24.4 80.57-24.75 82.39-25.1 83.94-25.5L83.94-25.5Q84.44-25.45 84.77-25.33 85.09-25.2 85.59-24.95L85.59-24.95 85.59-20.4 85.64-20.35Q87.19-22.65 89.12-24.25 91.04-25.85 93.24-25.85L93.24-25.85Q94.09-25.85 94.92-25.73 95.74-25.6 96.54-25.1L96.54-25.1Q96.64-23.05 96.37-21.2 96.09-19.35 95.54-17.6L95.54-17.6Q95.19-17.55 94.44-17.57 93.69-17.6 93.29-17.8L93.29-17.8 92.59-22.8Q90.84-22.8 89.07-21.53 87.29-20.25 85.84-16.85L85.84-16.85ZM117.84 0.85L117.84 0.85Q114.84 0.85 112.79-0.73 110.74-2.3 110.74-5.5L110.74-5.5Q110.74-8 111.96-9.6 113.19-11.2 115.26-12.08 117.34-12.95 119.89-13.25 122.44-13.55 125.09-13.5L125.09-13.5 125.14-17.9Q125.19-20.7 124.09-22.23 122.99-23.75 120.74-23.75L120.74-23.75Q119.49-23.75 118.34-23.58 117.19-23.4 116.04-23L116.04-23 115.39-17.7Q114.99-17.5 114.29-17.48 113.59-17.45 113.19-17.5L113.19-17.5Q112.74-19.15 112.44-20.8 112.14-22.45 112.19-24L112.19-24Q114.54-25.1 116.91-25.55 119.29-26 122.09-26L122.09-26Q124.89-26 126.61-25.1 128.34-24.2 129.16-22 129.99-19.8 129.99-15.85L129.99-15.85 129.99-2.45Q130.84-2.05 131.74-1.88 132.64-1.7 133.49-1.45L133.49-1.45Q133.64-0.5 133.24 0.3L133.24 0.3Q132.44 0.45 131.31 0.55 130.19 0.65 129.04 0.65L129.04 0.65Q127.39 0.65 126.19 0.35L126.19 0.35 125.49-2.25 125.29-2.25Q124.04-0.95 122.19-0.05 120.34 0.85 117.84 0.85ZM119.74-1.9L119.74-1.9Q121.14-1.9 122.74-2.78 124.34-3.65 125.09-4.75L125.09-4.75 125.09-11.5Q119.94-11.5 117.84-10.28 115.74-9.05 115.74-6L115.74-6Q115.74-3.95 116.84-2.93 117.94-1.9 119.74-1.9ZM146.84-8.35L146.84-8.35Q145.94-8.35 144.99-8.47 144.04-8.6 143.04-8.9L143.04-8.9Q142.54-8.15 142.34-7.7 142.14-7.25 142.14-6.95L142.14-6.95Q142.14-6.5 142.49-6.05 142.84-5.6 144.34-5.18 145.84-4.75 149.24-4.35L149.24-4.35Q152.59-3.95 154.84-3.3 157.09-2.65 158.24-1.25 159.39 0.15 159.39 2.75L159.39 2.75Q159.39 5 158.29 6.6 157.19 8.2 155.34 9.25 153.49 10.3 151.29 10.8 149.09 11.3 146.84 11.3L146.84 11.3Q143.04 11.3 140.66 10.4 138.29 9.5 137.16 7.98 136.04 6.45 136.04 4.7L136.04 4.7Q136.04 2.9 137.04 1.13 138.04-0.65 140.74-1.75L140.74-1.75Q139.09-3.2 139.09-5.05L139.09-5.05Q139.09-6.7 139.71-7.78 140.34-8.85 141.14-9.6L141.14-9.6Q139.14-10.6 137.79-12.33 136.44-14.05 136.44-16.65L136.44-16.65Q136.44-19.05 137.39-20.7 138.34-22.35 139.89-23.35 141.44-24.35 143.26-24.8 145.09-25.25 146.84-25.25L146.84-25.25Q148.04-25.25 149.34-25.05 150.64-24.85 151.84-24.35L151.84-24.35 158.49-28.45Q158.89-28.25 159.24-27.55 159.59-26.85 159.79-26.08 159.99-25.3 159.89-24.8L159.89-24.8Q158.54-24.35 156.89-23.98 155.24-23.6 153.54-23.5L153.54-23.5Q155.14-22.55 156.19-20.85 157.24-19.15 157.24-16.65L157.24-16.65Q157.24-14.45 156.26-12.88 155.29-11.3 153.69-10.3 152.09-9.3 150.29-8.83 148.49-8.35 146.84-8.35ZM146.84-10.25L146.84-10.25Q149.39-10.25 151.04-12.08 152.69-13.9 152.69-16.75L152.69-16.75Q152.69-19.85 151.04-21.6 149.39-23.35 146.84-23.35L146.84-23.35Q144.29-23.35 142.64-21.6 140.99-19.85 140.99-16.75L140.99-16.75Q140.99-13.9 142.64-12.08 144.29-10.25 146.84-10.25ZM147.59-0.35L147.59-0.35Q146.69-0.5 145.31-0.65 143.94-0.8 142.54-1.15L142.54-1.15Q141.34-0.15 140.71 0.98 140.09 2.1 140.09 4L140.09 4Q140.09 6.1 141.89 7.75 143.69 9.4 147.09 9.4L147.09 9.4Q149.54 9.4 151.29 8.6 153.04 7.8 153.96 6.55 154.89 5.3 154.89 4.05L154.89 4.05Q154.89 2.55 153.86 1.7 152.84 0.85 151.16 0.38 149.49-0.1 147.59-0.35ZM167.28-13.5L167.28-12.5Q167.28-7.45 169.31-4.67 171.33-1.9 174.83-1.9L174.83-1.9Q176.38-1.9 177.43-2.08 178.48-2.25 179.51-2.75 180.53-3.25 181.83-4.15L181.83-4.15Q182.63-3.8 182.73-2.95L182.73-2.95Q181.18-1.15 179.03-0.15 176.88 0.85 174.68 0.85L174.68 0.85Q170.88 0.85 168.03-0.75 165.18-2.35 163.58-5.35 161.98-8.35 161.98-12.5L161.98-12.5Q161.98-16.75 163.66-19.73 165.33-22.7 168.16-24.28 170.98-25.85 174.43-25.85L174.43-25.85Q178.88-25.85 181.01-22.88 183.13-19.9 183.13-15.2L183.13-15.2Q183.13-14.85 183.13-14.55 183.13-14.25 183.08-13.9L183.08-13.9 182.38-13.35 167.28-13.5ZM174.38-23.7L174.38-23.7Q172.93-23.7 171.51-22.8 170.08-21.9 168.98-20.1 167.88-18.3 167.48-15.55L167.48-15.55 178.38-16.15Q178.38-20 177.56-21.85 176.73-23.7 174.38-23.7ZM194.63-25.05L194.48-21.65 194.53-21.6Q196.93-24 199.48-24.9 202.03-25.8 203.93-25.8L203.93-25.8Q207.18-25.8 209.06-23.95 210.93-22.1 210.93-18.55L210.93-18.55 210.98-2.5 214.48-1.5Q214.63-0.55 214.23 0.25L214.23 0.25Q212.88 0.15 211.38 0.08 209.88 0 208.48 0L208.48 0Q207.08 0 205.53 0.08 203.98 0.15 202.58 0.25L202.58 0.25Q202.43-0.7 202.68-1.5L202.68-1.5Q203.68-1.7 204.46-1.95 205.23-2.2 205.98-2.5L205.98-2.5 205.98-16.3Q205.98-19.7 204.93-21 203.88-22.3 201.58-22.3L201.58-22.3Q199.73-22.3 197.98-21.58 196.23-20.85 194.88-19.3L194.88-19.3 194.88-2.5 198.23-1.5Q198.38-0.55 197.98 0.25L197.98 0.25Q196.63 0.15 195.21 0.08 193.78 0 192.38 0L192.38 0Q190.98 0 189.33 0.08 187.68 0.15 186.28 0.25L186.28 0.25Q186.13-0.7 186.38-1.5L186.38-1.5Q187.28-1.75 188.18-1.98 189.08-2.2 189.88-2.5L189.88-2.5 189.88-22 185.73-22.4Q185.58-23.4 185.98-24.15L185.98-24.15Q187.83-24.45 189.58-24.8 191.33-25.15 192.93-25.5L192.93-25.5Q193.78-25.45 194.63-25.05L194.63-25.05ZM227.23 1L227.23 1Q224.43 1 222.1-0.68 219.78-2.35 218.4-5.3 217.03-8.25 217.03-12.05L217.03-12.05Q217.03-16.4 218.58-19.5 220.13-22.6 222.95-24.28 225.78-25.95 229.63-25.95L229.63-25.95Q231.03-25.95 232.45-25.6 233.88-25.25 234.98-24.7L234.98-24.7 235.13-24.7 235.13-34.3 230.98-34.7Q230.83-35.7 231.23-36.45L231.23-36.45Q234.83-37 237.98-37.8L237.98-37.8Q238.93-37.75 239.98-37.25L239.98-37.25 239.98-2.4Q240.43-2 241.48-1.75 242.53-1.5 243.48-1.4L243.48-1.4Q243.63-0.45 243.23 0.35L243.23 0.35Q242.43 0.5 241.3 0.6 240.18 0.7 239.03 0.7L239.03 0.7Q237.38 0.7 236.18 0.4L236.18 0.4Q235.78-0.25 235.55-0.9 235.33-1.55 235.23-2.25L235.23-2.25 234.98-2.25Q232.88-0.45 231.1 0.28 229.33 1 227.23 1ZM229.28-1.9L229.28-1.9Q231.23-1.9 232.63-2.73 234.03-3.55 234.98-4.55L234.98-4.55 234.98-21.95Q234.03-22.8 232.75-23.18 231.48-23.55 230.03-23.55L230.03-23.55Q226.13-23.55 224.23-20.55 222.33-17.55 222.33-12.5L222.33-12.5Q222.33-7.35 224.1-4.63 225.88-1.9 229.28-1.9ZM252.93 0.85L252.93 0.85Q249.93 0.85 247.88-0.73 245.83-2.3 245.83-5.5L245.83-5.5Q245.83-8 247.05-9.6 248.28-11.2 250.35-12.08 252.43-12.95 254.98-13.25 257.53-13.55 260.18-13.5L260.18-13.5 260.23-17.9Q260.28-20.7 259.18-22.23 258.08-23.75 255.83-23.75L255.83-23.75Q254.58-23.75 253.43-23.58 252.28-23.4 251.13-23L251.13-23 250.48-17.7Q250.08-17.5 249.38-17.48 248.68-17.45 248.28-17.5L248.28-17.5Q247.83-19.15 247.53-20.8 247.23-22.45 247.28-24L247.28-24Q249.63-25.1 252-25.55 254.38-26 257.18-26L257.18-26Q259.98-26 261.7-25.1 263.43-24.2 264.25-22 265.08-19.8 265.08-15.85L265.08-15.85 265.08-2.45Q265.93-2.05 266.83-1.88 267.73-1.7 268.58-1.45L268.58-1.45Q268.73-0.5 268.33 0.3L268.33 0.3Q267.53 0.45 266.4 0.55 265.28 0.65 264.13 0.65L264.13 0.65Q262.48 0.65 261.28 0.35L261.28 0.35 260.58-2.25 260.38-2.25Q259.13-0.95 257.28-0.05 255.43 0.85 252.93 0.85ZM254.83-1.9L254.83-1.9Q256.23-1.9 257.83-2.78 259.43-3.65 260.18-4.75L260.18-4.75 260.18-11.5Q255.03-11.5 252.93-10.28 250.83-9.05 250.83-6L250.83-6Q250.83-3.95 251.93-2.93 253.03-1.9 254.83-1.9Z" opacity="1" transform="matrix(1,0,0,1,0,0)" fill="#30F2DF" class="wordmark-text-0" data-fill-palette-color="primary" id="text-0"></path></svg></g></svg></g></svg></g></svg></g></svg></g></svg></g></svg></g><path d="M187.212 95.22L187.212 33.749 7.51 33.749 7.51 213.451 187.212 213.451 187.212 151.98 183.176 151.98 183.176 209.415 11.546 209.415 11.546 37.785 183.176 37.785 183.176 95.22Z" fill="#30F2DF" stroke="transparent" data-fill-palette-color="tertiary"></path></svg></g><defs></defs></svg><rect width="395.52" height="247.2" fill="none" stroke="none" visibility="hidden"></rect></g></svg></g></svg>